<?xml version="1.0" standalone="no"?>
<!DOCTYPE svg PUBLIC "-//W3C//DTD SVG 20010904//EN"
 "http://www.w3.org/TR/2001/REC-SVG-20010904/DTD/svg10.dtd">
<svg version="1.0" xmlns="http://www.w3.org/2000/svg"
 width="1080.000000pt" height="1080.000000pt" viewBox="0 0 1080.000000 1080.000000"
 preserveAspectRatio="xMidYMid meet">
<metadata>
Created by potrace 1.14, written by Peter Selinger 2001-2017
</metadata>
<g transform="translate(0.000000,1080.000000) scale(0.100000,-0.100000)"
fill="#000000" stroke="none">
<path d="M5138 10395 c-2 -2 -46 -6 -98 -9 -117 -8 -198 -15 -227 -22 -12 -2
-46 -7 -75 -9 -146 -15 -493 -86 -683 -140 -49 -14 -97 -27 -105 -29 -8 -2
-71 -23 -140 -46 -406 -137 -798 -328 -1165 -569 -90 -59 -423 -304 -435 -321
-3 -3 -41 -37 -85 -75 -134 -115 -389 -366 -446 -439 -12 -16 -32 -38 -43 -50
-37 -39 -80 -89 -144 -171 -35 -44 -69 -87 -75 -95 -43 -54 -227 -318 -227
-325 0 -2 -17 -30 -38 -62 -121 -183 -284 -505 -392 -773 -34 -85 -63 -159
-65 -165 -1 -5 -5 -17 -8 -25 -63 -168 -169 -556 -193 -705 -3 -20 -8 -47 -10
-59 -12 -59 -32 -185 -39 -241 -3 -27 -8 -68 -11 -90 -3 -22 -7 -58 -9 -80 -2
-22 -7 -83 -11 -135 -10 -115 -10 -616 -1 -720 4 -41 10 -104 13 -140 3 -36 7
-76 9 -90 4 -29 13 -89 19 -140 5 -38 15 -100 22 -134 2 -11 9 -48 15 -81 6
-33 20 -98 31 -145 11 -47 21 -92 23 -100 11 -52 18 -80 30 -120 69 -241 132
-429 176 -527 10 -24 19 -45 19 -49 0 -24 219 -474 291 -599 100 -172 293
-460 369 -551 14 -16 36 -45 50 -64 113 -154 425 -483 610 -643 58 -51 107
-94 110 -97 16 -16 170 -136 265 -205 107 -78 345 -234 415 -271 19 -11 37
-21 40 -24 29 -29 440 -228 615 -298 144 -58 328 -122 445 -156 145 -41 264
-72 319 -82 12 -3 51 -11 85 -19 33 -8 76 -17 94 -20 17 -3 47 -8 65 -11 17
-3 43 -7 57 -9 14 -2 39 -6 55 -9 17 -3 53 -8 80 -11 28 -3 61 -7 75 -10 27
-5 80 -10 225 -22 184 -14 729 -7 870 12 17 3 84 11 150 20 107 13 357 56 410
69 11 3 60 15 110 26 512 119 1083 365 1550 669 83 54 294 205 352 252 22 19
53 43 68 54 16 11 33 25 39 31 6 5 49 43 96 83 146 126 356 336 490 491 36 41
67 77 70 80 51 51 279 363 376 515 123 192 284 491 353 655 13 30 32 73 41 95
59 132 150 394 204 587 36 126 100 408 110 483 3 22 9 63 15 90 5 28 12 77 15
110 4 33 9 71 11 85 6 29 11 78 21 215 10 124 10 586 1 715 -11 149 -22 253
-32 310 -2 14 -7 45 -10 70 -3 25 -7 56 -10 70 -2 14 -13 75 -24 135 -11 61
-22 117 -25 125 -3 8 -7 26 -10 40 -10 56 -39 172 -72 285 -157 544 -410 1065
-738 1520 -85 119 -203 272 -247 320 -15 17 -48 55 -74 85 -103 120 -342 356
-470 465 -38 33 -72 62 -75 65 -3 3 -48 39 -100 80 -52 41 -99 78 -105 83 -5
4 -53 38 -105 75 -517 366 -1100 632 -1715 782 -113 27 -133 31 -293 60 -114
21 -124 23 -222 35 -30 3 -62 8 -70 10 -8 2 -55 7 -104 10 -48 4 -98 9 -110
12 -21 5 -633 12 -638 8z"/>
</g>
</svg>
